HIERARCHY
ROOT Hips
{
	OFFSET -13.091600 -28.302996 44.698402
	CHANNELS 6 Xposition Yposition Zposition Zrotation Xrotation Yrotation
	JOINT Chest
	{
		OFFSET -0.673000 0.623899 5.369202
		CHANNELS 6 Xposition Yposition Zposition Zrotation Xrotation Yrotation
		JOINT Chest2
		{
			OFFSET 0.000000 0.000000 4.415001
			CHANNELS 6 Xposition Yposition Zposition Zrotation Xrotation Yrotation
			JOINT Neck
			{
				OFFSET 0.000000 0.000002 10.273300
				CHANNELS 6 Xposition Yposition Zposition Zrotation Xrotation Yrotation
				JOINT Head
				{
					OFFSET 0.000000 0.000000 2.173897
					CHANNELS 6 Xposition Yposition Zposition Zrotation Xrotation Yrotation
					End Site
					{
						OFFSET 0.000000 0.000000 9.961800
					}
				}
			}
			JOINT LeftCollar
			{
				OFFSET 2.359900 -0.565201 5.928101
				CHANNELS 6 Xposition Yposition Zposition Zrotation Xrotation Yrotation
				JOINT LeftShoulder
				{
					OFFSET 5.443700 0.000000 0.000000
					CHANNELS 6 Xposition Yposition Zposition Zrotation Xrotation Yrotation
					JOINT LeftElbow
					{
						OFFSET 0.000000 0.000000 -10.615799
						CHANNELS 6 Xposition Yposition Zposition Zrotation Xrotation Yrotation
						JOINT LeftWrist
						{
							OFFSET 0.000000 -0.000002 -13.110302
							CHANNELS 6 Xposition Yposition Zposition Zrotation Xrotation Yrotation
							End Site
							{
								OFFSET 0.000000 0.000000 -2.173901
							}
						}
					}
				}
			}
			JOINT RightCollar
			{
				OFFSET -2.636600 -1.718800 6.889698
				CHANNELS 6 Xposition Yposition Zposition Zrotation Xrotation Yrotation
				JOINT RightShoulder
				{
					OFFSET -4.139101 0.000000 0.000000
					CHANNELS 6 Xposition Yposition Zposition Zrotation Xrotation Yrotation
					JOINT RightElbow
					{
						OFFSET 0.000000 0.000000 -10.471802
						CHANNELS 6 Xposition Yposition Zposition Zrotation Xrotation Yrotation
						JOINT RightWrist
						{
							OFFSET 0.000000 0.000000 -12.281898
							CHANNELS 6 Xposition Yposition Zposition Zrotation Xrotation Yrotation
							End Site
							{
								OFFSET 0.000000 -0.000002 -2.173901
							}
						}
					}
				}
			}
		}
	}
	JOINT LeftHip
	{
		OFFSET 2.273400 0.176701 -2.518002
		CHANNELS 6 Xposition Yposition Zposition Zrotation Xrotation Yrotation
		JOINT LeftKnee
		{
			OFFSET 0.000000 -0.000002 -20.456402
			CHANNELS 6 Xposition Yposition Zposition Zrotation Xrotation Yrotation
			JOINT LeftAnkle
			{
				OFFSET 0.000000 -0.000002 -16.635300
				CHANNELS 6 Xposition Yposition Zposition Zrotation Xrotation Yrotation
				End Site
				{
					OFFSET 0.000000 -8.812399 0.000001
				}
			}
		}
	}
	JOINT RightHip
	{
		OFFSET -1.914800 0.018101 -2.699299
		CHANNELS 6 Xposition Yposition Zposition Zrotation Xrotation Yrotation
		JOINT RightKnee
		{
			OFFSET 0.000000 -0.000002 -20.148901
			CHANNELS 6 Xposition Yposition Zposition Zrotation Xrotation Yrotation
			JOINT RightAnkle
			{
				OFFSET 0.000000 -0.000002 -16.838301
				CHANNELS 6 Xposition Yposition Zposition Zrotation Xrotation Yrotation
				End Site
				{
					OFFSET 0.000000 -8.328398 0.000001
				}
			}
		}
	}
}
MOTION
Frames: 7
Frame Time: 0.041667
-11.444405 30.054312 29.079306 1503.004765 -19.707001 -16.989177 -0.673001 0.623893 5.369215 23.161182 3.713306 -13.067958 -0.000001 0.000000 4.415001 -8.468563 -1.419428 -0.241435 -0.000002 0.000001 10.273294 -19.584282 14.331226 30.473224 -0.000001 -0.000005 2.173903 -0.921093 0.372606 -3.313388 2.359900 -0.565201 5.928092 20.851903 1.784396 -12.735900 5.443696 -0.000002 0.000004 145.577846 223.855789 -307.968749 -0.000001 -0.000006 -10.615791 595.228146 -154.932104 190.391182 -0.000001 -0.000009 -13.110297 -339.197521 -365.719911 323.381044 -2.636600 -1.718803 6.889694 193.436708 -186.396983 159.394212 -4.139101 -0.000001 0.000002 388.734452 -369.761170 426.305519 0.000001 -0.000008 -10.471801 29.584517 -2.332061 -359.690001 -0.000000 -0.000003 -12.281900 376.647148 23.523692 80.859720 2.273398 0.176699 -2.517999 -117.995124 -146.348756 -121.934354 -0.000002 -0.000003 -20.456394 30.037324 178.202764 -78.593436 -0.000003 -0.000006 -16.635298 54.088630 5.125283 28.618226 -1.914801 0.018094 -2.699300 -56.974361 146.418192 107.576279 0.000005 -0.000001 -20.148899 -20.309738 9.097671 -37.940328 -0.000000 -0.000004 -16.838301 306.229455 32.322111 -19.119965
-11.395004 30.016008 29.055099 1503.647677 -18.904828 -16.734086 -0.673001 0.623895 5.369205 22.729626 3.450668 -12.528342 0.000003 -0.000003 4.415010 -8.445296 -1.368206 -0.226975 0.000002 -0.000001 10.273304 -19.314510 13.876766 30.124317 -0.000000 -0.000002 2.173908 -0.987557 0.244982 -3.322555 2.359900 -0.565203 5.928097 20.898029 1.888172 -12.458906 5.443694 0.000001 -0.000000 142.891218 224.546103 -310.073677 -0.000002 -0.000002 -10.615800 595.241151 -154.842342 190.726844 -0.000001 -0.000007 -13.110296 -340.910642 -365.778377 323.515626 -2.636605 -1.718801 6.889693 193.827245 -186.655942 159.647503 -4.139097 -0.000002 -0.000001 388.452065 -369.825784 425.990511 -0.000003 -0.000002 -10.471798 28.903448 -1.784515 -359.664839 0.000003 -0.000002 -12.281900 376.187722 23.577840 79.833778 2.273398 0.176698 -2.518000 -117.094496 -145.827148 -120.879377 0.000004 -0.000003 -20.456398 30.291797 178.126170 -78.617834 -0.000006 -0.000008 -16.635298 53.678286 5.524936 28.929297 -1.914802 0.018098 -2.699296 -57.904643 146.214256 108.527205 -0.000006 -0.000001 -20.148905 -20.604884 9.399440 -37.923635 -0.000004 -0.000003 -16.838303 306.365267 32.251959 -18.698584
-11.346403 29.972006 29.008492 1504.397796 -18.022238 -16.496017 -0.672997 0.623898 5.369212 22.292703 3.193116 -11.857115 -0.000000 0.000003 4.415000 -8.448381 -1.304473 -0.210207 0.000006 -0.000004 10.273305 -19.021619 13.312013 29.632800 -0.000001 -0.000004 2.173896 -1.055199 0.119113 -3.394983 2.359906 -0.565205 5.928093 20.922480 2.024403 -12.148382 5.443690 -0.000000 -0.000002 139.641510 225.416091 -312.618359 0.000003 -0.000004 -10.615789 594.914067 -154.622765 190.972076 -0.000002 -0.000004 -13.110304 -342.546828 -365.843373 323.761021 -2.636595 -1.718806 6.889702 195.083535 -187.046998 160.085045 -4.139097 0.000000 0.000001 387.264978 -370.494814 425.564744 0.000005 -0.000001 -10.471793 28.133575 -1.438648 -359.622410 -0.000002 -0.000005 -12.281902 375.382443 23.734720 78.808348 2.273400 0.176706 -2.518005 -116.011815 -145.250803 -119.585288 -0.000000 -0.000002 -20.456392 30.617850 177.937138 -78.572126 -0.000006 -0.000006 -16.635303 53.112490 5.986680 29.149396 -1.914798 0.018101 -2.699294 -59.039192 145.918276 109.634501 -0.000001 0.000000 -20.148899 -21.015297 9.977438 -37.918949 -0.000005 -0.000002 -16.838299 306.764505 32.195814 -17.955541
-11.303802 29.923613 28.938005 1505.282988 -17.085033 -16.306496 -0.672999 0.623899 5.369206 21.781260 3.004651 -11.034059 0.000000 0.000001 4.415008 -8.430497 -1.248960 -0.193283 0.000002 -0.000001 10.273302 -18.703703 12.623154 29.018093 0.000001 -0.000004 2.173903 -1.146565 0.012795 -3.508846 2.359901 -0.565202 5.928099 19.636919 -0.159192 -11.744809 5.443695 -0.000000 -0.000002 138.315347 224.467296 -313.189910 -0.000002 -0.000001 -10.615803 594.607746 -154.355049 191.276169 -0.000002 -0.000007 -13.110295 -344.485918 -365.968257 323.963085 -2.636598 -1.718801 6.889710 195.511501 -187.360750 160.467686 -4.139091 0.000002 0.000000 386.680368 -370.847361 425.051497 -0.000001 -0.000005 -10.471803 27.236952 -1.167949 -359.579680 0.000002 -0.000001 -12.281904 374.677185 23.847911 77.741507 2.273400 0.176710 -2.518001 -114.810357 -144.678433 -118.094613 -0.000001 0.000000 -20.456396 31.011484 177.688915 -78.509282 -0.000003 -0.000007 -16.635302 52.425038 6.496116 29.266165 -1.914798 0.018099 -2.699294 -60.317578 145.573994 110.840364 -0.000004 -0.000003 -20.148899 -21.323174 10.608765 -37.976955 -0.000001 -0.000004 -16.838299 307.229695 32.113179 -17.151223
-11.268402 29.870012 28.843599 1506.246427 -16.165154 -16.104384 -0.673006 0.623898 5.369204 21.248795 2.913473 -10.162995 0.000003 -0.000002 4.415000 -8.413521 -1.153883 -0.195724 -0.000005 0.000002 10.273295 -18.355102 11.811685 28.280101 -0.000002 0.000002 2.173889 -1.257689 -0.090397 -3.679756 2.359894 -0.565206 5.928100 19.574953 -0.194462 -11.376657 5.443693 -0.000002 -0.000001 134.340710 225.432852 -316.134158 -0.000002 0.000003 -10.615792 594.403606 -153.966220 191.721566 -0.000003 -0.000007 -13.110303 -346.777092 -366.127810 324.029611 -2.636606 -1.718806 6.889700 195.990134 -187.683162 161.011478 -4.139099 0.000001 0.000001 385.943637 -371.314437 424.376073 0.000002 -0.000003 -10.471799 26.199567 -0.960853 -359.550201 -0.000002 -0.000001 -12.281900 373.774835 23.897746 77.029828 2.273392 0.176703 -2.518007 -113.520278 -144.103249 -116.519940 0.000003 -0.000003 -20.456398 31.442646 177.355820 -78.407587 -0.000004 -0.000005 -16.635298 51.585171 7.040863 29.211240 -1.914806 0.018098 -2.699304 -61.768290 145.196626 112.161917 -0.000003 -0.000002 -20.148895 -21.267247 11.263580 -38.098457 -0.000001 -0.000001 -16.838303 307.733217 31.967905 -16.595627
-11.241701 29.815607 28.727402 1507.259918 -15.252195 -15.919942 -0.673000 0.623897 5.369207 20.772828 2.993878 -9.317185 0.000003 0.000000 4.415010 -8.425734 -1.117216 -0.181851 -0.000004 -0.000001 10.273300 -18.065652 10.859373 27.549705 -0.000002 -0.000003 2.173899 -1.330211 -0.166748 -3.922492 2.359900 -0.565204 5.928102 19.504660 -0.234533 -10.931794 5.443696 -0.000002 0.000001 130.002569 226.317253 -319.307792 -0.000000 -0.000000 -10.615794 594.109634 -153.404628 192.228106 -0.000007 -0.000002 -13.110302 -349.353384 -366.299357 324.076739 -2.636600 -1.718806 6.889705 196.535524 -188.013934 161.590514 -4.139093 -0.000001 -0.000008 385.098442 -371.705069 423.679831 0.000003 -0.000002 -10.471804 25.079459 -0.775126 -359.514083 0.000006 -0.000003 -12.281900 372.862895 23.922705 76.456222 2.273398 0.176702 -2.518001 -112.128231 -143.566751 -114.847117 0.000000 0.000003 -20.456396 31.843510 176.955435 -78.250814 -0.000002 -0.000010 -16.635300 50.629423 7.543295 28.880062 -1.914796 0.018100 -2.699298 -63.298484 144.809272 113.550181 -0.000006 -0.000003 -20.148897 -21.025754 11.988763 -38.298288 0.000000 -0.000000 -16.838295 308.333918 31.784169 -16.071737
-11.225301 29.762407 28.595196 1508.325100 -14.448343 -15.797005 -0.672997 0.623899 5.369205 20.350427 3.335175 -8.440295 0.000005 0.000002 4.415000 -8.492416 -1.129731 -0.176457 0.000000 0.000004 10.273314 -17.830607 9.839361 26.779162 -0.000004 -0.000008 2.173901 -1.376400 -0.214182 -4.206697 2.359908 -0.565200 5.928107 19.450345 -0.293749 -10.514041 5.443699 0.000001 0.000005 125.516556 227.079802 -322.481371 -0.000001 0.000000 -10.615794 593.958714 -152.687595 192.910155 -0.000001 -0.000001 -13.110287 -352.406178 -366.437545 324.082777 -2.636596 -1.718797 6.889707 197.062473 -188.247814 162.081386 -4.139100 -0.000001 0.000003 384.267454 -371.712500 423.007631 0.000005 -0.000007 -10.471796 23.844803 -0.586843 -359.438814 0.000003 -0.000000 -12.281900 371.497759 23.956445 76.115355 2.273401 0.176706 -2.518004 -110.728206 -143.187239 -113.166727 0.000003 -0.000006 -20.456396 32.192512 176.675410 -78.079219 -0.000004 -0.000002 -16.635300 49.696730 7.968257 28.370502 -1.914798 0.018099 -2.699297 -64.871559 144.394844 114.888221 0.000000 -0.000005 -20.148905 -20.475515 12.588320 -38.588264 -0.000000 0.000002 -16.838303 308.826402 31.596445 -15.636646
